<svg width="73" height="73" viewBox="0 0 73 73" fill="none" xmlns="http://www.w3.org/2000/svg">
<rect width="73" height="73" fill="#E5E5E5"/>
<g clip-path="url(#clip0)">
<path d="M-24 -3.99998C-24 -31.6142 -1.61424 -54 26 -54H340C367.614 -54 390 -31.6142 390 -4V792C390 819.614 367.614 842 340 842H26C-1.61423 842 -24 819.614 -24 792V-3.99998Z" fill="black"/>
<circle cx="36.5" cy="36.5" r="36.5" fill="white"/>
<circle cx="73" cy="36" r="138.5" stroke="white" stroke-width="3"/>
</g>
<defs>
<clipPath id="clip0">
<path d="M-24 -3.99998C-24 -31.6142 -1.61424 -54 26 -54H340C367.614 -54 390 -31.6142 390 -4V792C390 819.614 367.614 842 340 842H26C-1.61423 842 -24 819.614 -24 792V-3.99998Z" fill="white"/>
</clipPath>
</defs>
</svg>
